MOVIE INFO:
Kijkwijzer: Grof taalgebruik, Geweld, Afgeraden voor kinderen jonger dan 12 jaar
Regie: 	Joe Roth
Cast: 	Samuel L. Jackson, Julianne Moore en Edie Falco
Genre: 	Misdaad, Drama, Mystery
Land: 	Verenigde Staten
Tijdsduur: 	112 minuten
Plot:
Brenda Martin (Moore) strompelt aangeslagen de Eerste Hulp in Dempsy, New Jersey binnen en beweert dat een zwarte man haar auto heeft gestolen met haar vier jaar oude zoon op de achterbank. Detective Lorenzo Council (Jackson) heeft zijn bedenkingen bij Brenda's verhaal, maar start toch een grootschalig onderzoek, waarbij hij hulp krijgt van een groep moeders die naar verdwenen kinderen zoeken. Gedurende het onderzoek nemen de spanningen tussen het voornamelijk 'zwarte' Dempsy en het overwegend 'blanke' buurstadje Gannon toe. 

MEDIA INFO:
General
Complete name                    : Freedomland (2006) - DvDrip (NLSubs) - ACB-Team.avi
Format                           : AVI
Format/Info                      : Audio Video Interleave
File size                        : 924 MiB
Duration                         : 1h 53mn
Overall bit rate                 : 1 143 Kbps
Writing application              : VirtualDubMod 1.5.4.1 (build 2178/release)
Writing library                  : VirtualDubMod build 2178/release

Video
ID                               : 0
Format                           : MPEG-4 Visual
Format profile                   : Advanced Simple@L5
Format settings, BVOP            : 1
Format settings, QPel            : No
Format settings, GMC             : No warppoints
Format settings, Matrix          : Custom
Codec ID                         : XVID
Codec ID/Hint                    : XviD
Duration                         : 1h 53mn
Bit rate                         : 1 040 Kbps
Width                            : 580 pixels
Height                           : 240 pixels
Display aspect ratio             : 2.40:1
Frame rate                       : 23.976 fps
Color space                      : YUV
Chroma subsampling               : 4:2:0
Bit depth                        : 8 bits
Scan type                        : Progressive
Compression mode                 : Lossy
Bits/(Pixel*Frame)               : 0.312
Stream size                      : 841 MiB (91%)
Writing library                  : XviD 58

Audio
ID                               : 1
Format                           : MPEG Audio
Format version                   : Version 1
Format profile                   : Layer 3
Codec ID                         : 55
Codec ID/Hint                    : MP3
Duration                         : 1h 53mn
Bit rate mode                    : Constant
Bit rate                         : 96.0 Kbps
Channel(s)                       : 2 channels
Sampling rate                    : 48.0 KHz
Compression mode                 : Lossy
Stream size                      : 77.6 MiB (8%)
Alignment                        : Aligned on interleaves
Interleave, duration             : 83 ms (2.00 video frames)
Interleave, preload duration     : 504 ms

